<svg id="Capa_1" enable-background="new 0 0 511.512 511.512" height="512" viewBox="0 0 511.512 511.512" width="512" xmlns="http://www.w3.org/2000/svg"><g><path d="m449.57 468.639h-75.131c1.351-3.075 2.107-6.469 2.107-10.037v-2.639c0-8.38-6.817-15.197-15.197-15.197h-15.484c12.977-7.857 24.086-18.456 32.54-30.975 8.461 5.33 18.289 8.212 28.404 8.212 29.42 0 53.355-23.936 53.355-53.355s-23.936-53.355-53.355-53.355c-3.589 0-7.126.356-10.588 1.055v-48.134c0-8.657-7.043-15.701-15.7-15.701h-83.103v-7.661c0-10.656-8.669-19.325-19.325-19.325-10.655 0-19.324 8.669-19.324 19.325v7.661h-53.657c5.385-6.767 8.614-15.323 8.614-24.623v-20.7c0-6.06-4.93-10.989-10.99-10.989h-9.058c-4.142 0-7.5 3.357-7.5 7.5s3.358 7.5 7.5 7.5h5.048v16.688c0 13.577-11.046 24.623-24.624 24.623h-25.43v-16.688c0-10.822 6.932-20.266 17.248-23.5 3.953-1.238 6.152-5.447 4.914-9.399s-5.443-6.154-9.4-4.913c-8.415 2.637-15.427 7.844-20.301 14.602-7.207-9.934-18.9-16.413-32.084-16.413h-29.49c-6.032 0-10.939 4.907-10.939 10.939v20.748c0 21.849 17.775 39.623 39.624 39.623h6.951c-.01.234-.036.464-.036.701v87.322c0 37.794 20.222 70.953 50.412 89.23h-15.406c-8.379 0-15.197 6.817-15.197 15.197v2.639c0 3.568.756 6.962 2.107 10.037h-75.133c-7.937 0-14.395 6.457-14.395 14.395 0 15.703 12.775 28.479 28.478 28.479h359.462c15.702 0 28.478-12.775 28.478-28.479 0-7.936-6.457-14.393-14.395-14.393zm-42.762-142.347c21.149 0 38.355 17.206 38.355 38.355s-17.206 38.355-38.355 38.355c-7.472 0-14.729-2.186-20.922-6.225 1.912-3.958 3.579-8.055 4.986-12.267 4.368 3.511 9.909 5.619 15.936 5.619 14.051 0 25.482-11.432 25.482-25.482s-11.432-25.482-25.482-25.482c-3.777 0-7.361.832-10.588 2.313v-13.692c3.424-.985 6.968-1.494 10.588-1.494zm-10.482 38.355c0-5.78 4.702-10.482 10.482-10.482s10.482 4.702 10.482 10.482-4.702 10.482-10.482 10.482-10.482-4.701-10.482-10.482zm-122.558-123.796c0-2.385 1.939-4.325 4.324-4.325s4.325 1.94 4.325 4.325v7.661h-8.649zm-190.149-16.962v-16.688h25.429c13.578 0 24.624 11.046 24.624 24.623v16.688h-25.429c-13.578 0-24.624-11.046-24.624-24.623zm66.348 234.713v-2.639c0-.108.088-.197.197-.197h69.225 48.288c4.143 0 7.5-3.357 7.5-7.5s-3.357-7.5-7.5-7.5h-48.288c-49.202 0-89.231-40.028-89.231-89.23v-87.322c0-.387.314-.701.701-.701h151.56v29.412l-18.45 6.452c-5.529 1.934-9.244 7.168-9.244 13.025v11.865c-8.963-1.268-18.149-.9-26.983 1.12l-16.033 3.664c-11.589 2.651-23.572 1.773-34.653-2.535l-21.897-8.513v-36.99c0-4.143-3.358-7.5-7.5-7.5s-7.5 3.357-7.5 7.5v70.523c0 43.688 35.543 79.23 79.231 79.23h72.602c43.688 0 79.23-35.543 79.23-79.23v-10.462c0-.011 0-.023 0-.035v-60.027c0-4.143-3.357-7.5-7.5-7.5s-7.5 3.357-7.5 7.5v48.414c-9.884-4.05-20.485-5.909-31.109-5.48v-11.544c0-5.856-3.714-11.091-9.243-13.024l-18.45-6.453v-29.413h83.103c.386 0 .7.314.7.701v58.294.078 28.95c0 47.216-36.888 86.342-83.979 89.073-3.984.231-7.051 3.533-7.056 7.473-.001.062-.009.122-.009.185 0 .084.01.166.013.25v.015c0 .004.001.007.001.011.146 4.014 3.437 7.224 7.486 7.224h63.672c.108 0 .197.089.197.197v2.639c0 5.534-4.503 10.037-10.038 10.037h-191.506c-5.535 0-10.037-4.503-10.037-10.037zm175.144-87.387v-32.251c9.257-.469 18.503 1.233 27.024 5.019l4.085 1.815v5.737c0 35.417-28.813 64.23-64.23 64.23h-72.602c-35.417 0-64.231-28.813-64.231-64.23v-17.44l16.461 6.4c8.645 3.361 17.725 5.056 26.854 5.056 5.537 0 11.093-.624 16.577-1.878l16.033-3.664c7.745-1.771 15.826-1.929 23.641-.534v31.74c0 7.64 6.216 13.855 13.856 13.855h42.676c7.64 0 13.856-6.216 13.856-13.855zm-15-1.145h-40.388v-56.816l20.194-7.063 20.193 7.063v56.816zm125.376 126.442h-359.462c-7.229 0-13.147-5.721-13.464-12.873h97.443 191.503 97.443c-.316 7.152-6.234 12.873-13.463 12.873z"/><path d="m346.177 145.762c4.143 0 7.5-3.357 7.5-7.5v-32c0-4.687 3.813-8.5 8.5-8.5s8.5 3.813 8.5 8.5c0 2.454-1.062 4.789-2.913 6.406-3.12 2.725-3.441 7.463-.717 10.582 2.726 3.122 7.465 3.44 10.582.717 5.114-4.466 8.048-10.919 8.048-17.705 0-12.958-10.542-23.5-23.5-23.5s-23.5 10.542-23.5 23.5v32c0 4.142 3.357 7.5 7.5 7.5z"/><path d="m281.724 188.151c3.12 2.725 7.858 2.404 10.582-.717 2.725-3.119 2.403-7.857-.717-10.582-1.852-1.617-2.913-3.952-2.913-6.406 0-4.687 3.813-8.5 8.5-8.5s8.5 3.813 8.5 8.5v49.739c0 4.143 3.357 7.5 7.5 7.5s7.5-3.357 7.5-7.5v-49.739c0-12.958-10.542-23.5-23.5-23.5s-23.5 10.542-23.5 23.5c.001 6.786 2.934 13.24 8.048 17.705z"/><path d="m290.536 41.205c3.121 2.724 7.859 2.403 10.582-.717 2.725-3.119 2.403-7.857-.717-10.582-1.852-1.617-2.913-3.952-2.913-6.406 0-4.687 3.813-8.5 8.5-8.5s8.5 3.813 8.5 8.5v72.845c0 4.143 3.357 7.5 7.5 7.5s7.5-3.357 7.5-7.5v-72.845c0-12.958-10.542-23.5-23.5-23.5s-23.5 10.542-23.5 23.5c0 6.786 2.934 13.239 8.048 17.705z"/><path d="m346.177 207.834c4.143 0 7.5-3.357 7.5-7.5v-31.888c0-4.143-3.357-7.5-7.5-7.5s-7.5 3.357-7.5 7.5v31.888c0 4.143 3.357 7.5 7.5 7.5z"/></g></svg>