<svg xmlns="http://www.w3.org/2000/svg" height="593pt" version="1.1" viewBox="0 -45 593.31194 593" width="593pt">
<g id="surface1">
<path d="M 528.152344 30.484375 C 492.351562 10.574219 447.183594 23.460938 427.273438 59.261719 C 423.152344 66.675781 420.332031 74.742188 418.9375 83.105469 L 414.488281 109.914062 L 399.921875 175.445312 C 397.375 186.789062 389.09375 195.984375 378.078125 199.710938 C 376.179688 200.328125 374.230469 200.777344 372.25 201.042969 L 377.214844 189.1875 C 395.144531 146.058594 401.847656 99.085938 396.707031 52.664062 C 393.117188 20.261719 363.9375 -3.09375 331.535156 0.496094 C 325.761719 1.136719 320.113281 2.625 314.773438 4.914062 L 308.042969 7.816406 C 282.453125 18.894531 268.039062 46.300781 273.410156 73.664062 L 289.753906 155.386719 C 283.6875 153.027344 277.238281 151.804688 270.730469 151.785156 L 227.320312 151.785156 C 224.414062 151.816406 221.511719 152.089844 218.652344 152.609375 L 220.757812 131.519531 C 223.71875 101.953125 202.148438 75.582031 172.582031 72.621094 C 170.796875 72.441406 169.003906 72.351562 167.210938 72.351562 L 145.046875 72.351562 C 115.332031 72.347656 91.238281 96.433594 91.234375 126.148438 C 91.234375 127.941406 91.324219 129.734375 91.5 131.519531 L 102.582031 242.324219 C 103.5 251.050781 106.542969 259.414062 111.449219 266.691406 C 107.136719 269.390625 102.160156 270.859375 97.070312 270.929688 L 65.507812 270.929688 C 50.730469 270.898438 36.75 277.613281 27.539062 289.167969 L 10.660156 310.226562 C 1.679688 321.441406 -1.878906 336.054688 0.949219 350.136719 L 2.109375 355.925781 C 6.148438 375.703125 21.925781 390.964844 41.828125 394.339844 L 47.785156 395.332031 C 59.894531 397.363281 69.382812 406.851562 71.414062 418.960938 C 75.265625 442.445312 95.59375 459.65625 119.390625 459.582031 L 143.46875 459.582031 C 153.808594 459.601562 163.882812 456.308594 172.210938 450.179688 L 178.039062 445.898438 L 223.039062 490.898438 C 227.914062 495.765625 234.019531 499.21875 240.703125 500.886719 C 246.546875 502.355469 252.546875 503.097656 258.574219 503.101562 C 276.285156 503.089844 293.414062 496.753906 306.867188 485.230469 L 328.164062 466.960938 C 336.191406 460.0625 340.992188 450.140625 341.410156 439.566406 C 341.410156 438.574219 341.25 437.519531 341.210938 436.496094 C 353.804688 435.925781 365.582031 430.105469 373.691406 420.453125 L 376.09375 417.5625 C 392.175781 398.238281 389.546875 369.53125 370.21875 353.449219 C 368.742188 352.21875 367.183594 351.082031 365.558594 350.046875 L 352.371094 341.644531 L 407.695312 331.28125 C 447.21875 323.894531 485.167969 309.757812 519.890625 289.488281 C 565.082031 263.015625 592.894531 214.605469 593 162.230469 L 593 140.695312 C 592.996094 94.910156 568.175781 52.726562 528.152344 30.484375 Z M 438.554688 86.394531 C 443.492188 56.796875 471.488281 36.804688 501.085938 41.742188 C 507.207031 42.765625 513.109375 44.824219 518.535156 47.839844 C 529.203125 53.855469 538.75 61.679688 546.753906 70.957031 L 529.753906 81.578125 C 501.695312 99.078125 468.628906 106.777344 435.726562 103.472656 Z M 358.847656 181.574219 L 350.566406 201.429688 L 349.324219 201.429688 C 337.679688 201.402344 326.894531 195.296875 320.878906 185.324219 L 316.203125 177.53125 C 315.425781 176.230469 314.515625 175.039062 313.640625 173.828125 L 306.351562 137.417969 L 311.207031 134.996094 C 326.824219 127.144531 344.925781 125.851562 361.496094 131.414062 L 367.773438 112.546875 C 346.210938 105.28125 322.636719 106.957031 302.320312 117.195312 L 298.109375 96.183594 C 322.363281 82.117188 350.753906 76.925781 378.414062 81.5 C 378.65625 115.832031 372.003906 149.859375 358.847656 181.574219 Z M 315.816406 26.066406 L 322.585938 23.167969 C 342.480469 14.636719 365.519531 23.851562 374.046875 43.742188 C 375.566406 47.28125 376.550781 51.023438 376.976562 54.851562 C 377.214844 56.984375 377.292969 59.121094 377.484375 61.253906 C 348.847656 57.40625 319.722656 62.484375 294.082031 75.800781 L 292.878906 69.765625 C 289.304688 51.617188 298.851562 33.433594 315.816406 26.066406 Z M 156.128906 270.933594 C 138.675781 270.964844 124.058594 257.722656 122.371094 240.351562 L 117.296875 189.566406 C 141.328125 203.507812 170.988281 203.507812 195.019531 189.566406 L 189.886719 240.351562 C 188.199219 257.722656 173.582031 270.964844 156.128906 270.933594 Z M 145.046875 92.214844 L 167.207031 92.214844 C 185.957031 92.222656 201.148438 107.429688 201.136719 126.179688 C 201.136719 127.304688 201.078125 128.425781 200.96875 129.546875 L 197.414062 165.0625 L 186.113281 171.851562 C 167.640625 182.941406 144.554688 182.941406 126.082031 171.851562 L 114.785156 165.0625 L 111.230469 129.546875 C 111.132812 128.554688 111.230469 127.558594 111.230469 126.515625 L 124.058594 134.210938 C 143.625 145.980469 167.363281 148.585938 189.011719 141.339844 L 182.738281 122.476562 C 166.582031 127.863281 148.878906 125.921875 134.273438 117.152344 L 117.207031 106.90625 C 118.007812 105.667969 118.882812 104.476562 119.828125 103.34375 C 126.253906 96.191406 135.433594 92.136719 145.046875 92.214844 Z M 91.035156 415.707031 C 87.605469 395.226562 71.558594 379.179688 51.078125 375.753906 L 45.125 374.761719 C 33.363281 372.75 24.039062 363.722656 21.652344 352.03125 L 20.488281 346.242188 C 18.816406 337.914062 20.921875 329.269531 26.238281 322.644531 L 43.117188 301.59375 C 48.546875 294.769531 56.789062 290.792969 65.507812 290.792969 L 71.160156 290.792969 C 94.230469 327.023438 106.484375 369.082031 106.484375 412.035156 L 106.484375 436.578125 C 98.289062 432.496094 92.542969 424.738281 91.035156 415.707031 Z M 160.476562 434.15625 C 155.535156 437.757812 149.585938 439.707031 143.46875 439.722656 L 126.34375 439.722656 L 126.34375 412.035156 C 126.382812 369.539062 115.394531 327.765625 94.449219 290.792969 L 97.074219 290.792969 C 107.375 290.726562 117.382812 287.351562 125.617188 281.160156 C 133.53125 286.605469 142.765625 289.808594 152.347656 290.433594 L 166.058594 300.71875 C 178.53125 310.121094 185.878906 324.820312 185.917969 340.4375 L 205.773438 340.4375 C 205.707031 318.988281 195.78125 298.765625 178.859375 285.589844 C 196.050781 277.636719 207.757812 261.179688 209.636719 242.328125 L 216.5 173.730469 C 219.960938 172.425781 223.621094 171.722656 227.320312 171.644531 L 231.0625 171.644531 L 244.875 187.441406 C 274.460938 221.378906 289.234375 265.75 285.902344 310.648438 C 260.976562 312.898438 242.589844 334.925781 244.835938 359.851562 C 245.925781 371.957031 251.835938 383.117188 261.238281 390.824219 C 246.792969 395.300781 231.0625 391.398438 220.378906 380.699219 L 212.792969 373.113281 C 197.949219 358.269531 173.882812 358.269531 159.039062 373.113281 C 144.195312 387.957031 144.195312 412.023438 159.039062 426.867188 L 163.84375 431.671875 Z M 315.289062 451.917969 L 293.992188 470.175781 C 280.621094 481.605469 262.558594 485.871094 245.488281 481.632812 C 242.292969 480.832031 239.371094 479.179688 237.039062 476.847656 L 228.101562 467.914062 C 239.453125 450.289062 259 439.664062 279.960938 439.722656 L 295.132812 439.722656 L 295.132812 419.867188 L 279.960938 419.867188 C 253.773438 419.804688 229.164062 432.371094 213.863281 453.625 L 190.035156 429.796875 L 202.871094 416.957031 L 188.832031 402.917969 L 175.984375 415.757812 L 173.074219 412.847656 C 166.136719 405.605469 166.386719 394.109375 173.628906 387.171875 C 180.652344 380.441406 191.726562 380.441406 198.753906 387.171875 L 206.339844 394.757812 C 222.558594 411.101562 246.667969 416.789062 268.484375 409.421875 C 283.179688 404.5 299.398438 408.347656 310.3125 419.351562 L 316.269531 425.308594 C 323.367188 432.394531 323.375 443.890625 316.289062 450.988281 C 315.964844 451.316406 315.625 451.628906 315.277344 451.925781 Z M 366.53125 384.5 C 367.664062 391.789062 365.609375 399.21875 360.882812 404.882812 L 358.480469 407.773438 C 352.667969 414.734375 343.585938 418.070312 334.648438 416.53125 C 333.378906 414.644531 331.945312 412.878906 330.359375 411.25 L 324.402344 405.292969 C 315.347656 396.242188 303.652344 390.304688 291.003906 388.332031 L 275.117188 376.792969 C 263.644531 368.515625 261.054688 352.503906 269.332031 341.03125 C 276.644531 330.898438 290.203125 327.519531 301.417969 333.039062 L 286.902344 354.8125 L 303.421875 365.832031 L 318.316406 343.492188 L 331.769531 352.0625 L 316.6875 374.671875 L 333.210938 385.691406 L 348.519531 362.714844 L 354.972656 366.824219 C 361.183594 370.789062 365.390625 377.222656 366.53125 384.5 Z M 314.625 317.597656 C 311.777344 315.835938 308.746094 314.386719 305.589844 313.28125 C 309.664062 262.699219 293.160156 212.617188 259.816406 174.363281 L 257.402344 171.644531 L 270.699219 171.644531 C 282.34375 171.671875 293.128906 177.777344 299.144531 187.75 L 303.820312 195.542969 C 313.445312 211.488281 330.699219 221.25 349.324219 221.289062 L 349.824219 221.289062 C 371.394531 248.855469 388.59375 279.582031 400.808594 312.386719 L 327.898438 326.046875 Z M 514.3125 269.5625 L 458.363281 242.140625 L 449.625 260.011719 L 493.234375 281.378906 C 470.101562 293.175781 445.65625 302.195312 420.40625 308.253906 C 409.113281 277.113281 393.585938 247.675781 374.257812 220.769531 C 387.648438 219.269531 399.902344 212.519531 408.324219 201.996094 L 434.632812 205.292969 C 441.652344 206.167969 448.71875 206.605469 455.792969 206.601562 C 482.058594 206.609375 507.964844 200.488281 531.453125 188.730469 L 572.972656 167.96875 C 571.023438 209.335938 549.160156 247.191406 514.3125 269.5625 Z M 573.140625 145.648438 L 522.503906 170.949219 C 496.109375 184.144531 466.398438 189.222656 437.117188 185.542969 L 418.359375 183.199219 C 418.699219 182.039062 419.113281 180.90625 419.351562 179.714844 L 431.933594 122.992188 C 438.089844 123.707031 444.28125 124.089844 450.480469 124.132812 C 482.234375 124.113281 513.34375 115.167969 540.257812 98.316406 L 558.539062 86.898438 C 568.113281 103.210938 573.15625 121.78125 573.140625 140.695312 Z M 573.140625 145.648438 " style=" stroke:none;fill-rule:nonzero;fill:rgb(0%,0%,0%);fill-opacity:1;" />
<path d="M 136.269531 221.289062 L 156.128906 221.289062 L 156.128906 241.144531 L 136.269531 241.144531 Z M 136.269531 221.289062 " style=" stroke:none;fill-rule:nonzero;fill:rgb(0%,0%,0%);fill-opacity:1;" />
<path d="M 27.050781 330.507812 L 46.910156 330.507812 L 46.910156 350.363281 L 27.050781 350.363281 Z M 27.050781 330.507812 " style=" stroke:none;fill-rule:nonzero;fill:rgb(0%,0%,0%);fill-opacity:1;" />
</g>
</svg>