<svg height="480pt" viewBox="0 -36 480 480" width="480pt" xmlns="http://www.w3.org/2000/svg"><path d="m0 392h16v16h-16zm0 0"/><path d="m440 196.199219c0 3.820312-.09375 7.621093-.28125 11.410156l16 .796875c.1875-4.058594.28125-8.125.28125-12.207031 0-1.472657 0-2.941407-.0625-4.421875l-16 .445312c.0625 1.328125.0625 2.648438.0625 3.976563zm0 0"/><path d="m424.847656 132.039062c7.070313 14.144532 11.75 29.359376 13.855469 45.03125l15.855469-2.140624c-2.328125-17.414063-7.515625-34.320313-15.359375-50.042969-15.753907-31.769531-43.113281-56.277344-76.421875-68.445313l-5.488282 15.03125c29.453126 10.773438 53.644532 32.457032 67.558594 60.566406zm0 0"/><path d="m145.28125 65.601562-2.5625-15.800781c-37.109375 5.871094-70.1875 26.703125-91.519531 57.632813l13.144531 9.125c18.863281-27.351563 48.117188-45.769532 80.9375-50.957032zm0 0"/><path d="m472 240h-52.558594c3.039063-14.402344 4.566406-29.082031 4.558594-43.800781-.023438-19.785157-4.628906-39.292969-13.457031-57-14.394531-28.8125-41-49.613281-72.4375-56.628907-31.4375-7.015624-64.363281.5-89.640625 20.460938 2.164062-30.726562 15.375-59.632812 37.191406-81.375l-11.3125-11.3125c-11.585938 11.636719-21.105469 25.164062-28.144531 40-12.140625-30.351562-41.507813-50.2773438-74.199219-50.34375-4.417969 0-8 3.582031-8 8 .066406 40.410156 30.226562 74.441406 70.335938 79.359375-.929688 5.410156-1.554688 10.867187-1.871094 16.34375l-.289063-.230469c-25.253906-20.21875-58.292969-27.9375-89.894531-21-31.597656 6.9375-58.363281 27.789063-72.824219 56.726563-3.269531 6.6875-5.945312 13.648437-8 20.800781h-29.457031c-17.671875 0-32 14.328125-32 32v56c0 4.417969 3.582031 8 8 8h56.800781c2.679688 9.28125 5.992188 18.371094 9.910157 27.199219l35.664062 79.242187c5.300781 11.671875 13.4375 21.835938 23.671875 29.558594h-102.046875v16h448v-16h-134.046875c10.246094-7.710938 18.398437-17.867188 23.710937-29.535156l11.9375-26.464844h66.398438c17.671875 0 32-14.328125 32-32v-56c0-4.417969-3.582031-8-8-8zm-291.464844-223.433594c28.53125 3.902344 50.964844 26.335938 54.863282 54.867188-28.527344-3.90625-50.960938-26.335938-54.863282-54.867188zm-164.535156 175.433594c0-8.835938 7.164062-16 16-16h40v16h16v-16h24v16h16v-16h24v16h16v-16h24v16h16v-16h24v16h16v-16h28.449219c-5.933594 9.84375-5.933594 22.15625 0 32h-244.449219c-5.621094-.007812-11.140625 1.472656-16 4.296875zm272 0c0-8.835938 7.164062-16 16-16h16v32h-16c-8.835938 0-16-7.164062-16-16zm-272 48c0-8.835938 7.164062-16 16-16h26c.714844 5.375 1.625 10.710938 2.734375 16zm339.070312 115.894531c-12.890624 28.660157-45.386718 42.902344-75.199218 32.960938l-37.34375-12.449219c-1.640625-.542969-3.414063-.542969-5.054688 0l-37.34375 12.449219c-29.8125 9.941406-62.308594-4.300781-75.199218-32.960938l-35.65625-79.199219c-7.496094-16.765624-12.589844-34.507812-15.128907-52.695312h253.855469c4.417969 0 8-3.582031 8-8v-48c0-4.417969-3.582031-8-8-8h-249.847656c1.5625-4.667969 3.433594-9.226562 5.601562-13.648438 12.296875-24.613281 35.0625-42.347656 61.9375-48.25 26.875-5.90625 54.976563.65625 76.460938 17.851563l12.855468 10.285156c2.921876 2.339844 7.078126 2.339844 10 0l12.847657-10.238281c21.484375-17.195312 49.585937-23.753906 76.460937-17.851562 26.875 5.902343 49.640625 23.636718 61.941406 48.25 7.703126 15.472656 11.722657 32.519531 11.742188 49.800781.015625 26.039062-5.191406 51.8125-15.320312 75.800781h-240.679688c-4.417969 0-8 3.582031-8 8v48c0 4.417969 3.582031 8 8 8h212zm-163.070312-51.894531c0 8.835938-7.164062 16-16 16h-16v-32h16c8.835938 0 16 7.164062 16 16zm272 0c0 8.835938-7.164062 16-16 16h-40v-16h-16v16h-24v-16h-16v16h-24v-16h-16v16h-24v-16h-16v16h-24v-16h-16v16h-28.449219c5.933594-9.84375 5.933594-22.15625 0-32h244.449219c5.621094.007812 11.140625-1.472656 16-4.296875zm-16-32h-38.023438c2.023438-5.273438 3.785157-10.617188 5.367188-16h48.65625c0 8.835938-7.164062 16-16 16zm0 0"/></svg>