<?xml version="1.0"?>
<svg xmlns="http://www.w3.org/2000/svg" viewBox="0 0 512 512" width="512" height="512"><g id="outline"><path d="M495.85,485.373l-28.932-89.021a206.347,206.347,0,0,0-61.9-92.915,57.951,57.951,0,0,0,1.088-17.349,63.132,63.132,0,0,0-3.01-14.425,63.8,63.8,0,0,0,10.926-9.937A58.029,58.029,0,0,0,424.8,243.453a39.926,39.926,0,0,0,17.533-41.3,40.021,40.021,0,0,0-22.742-69.993,39.833,39.833,0,0,0-9.483-12.869c1.669-2.353,3.317-4.721,4.919-7.124l5.668-8.5a23.638,23.638,0,0,0,3.507.271,24.137,24.137,0,0,0,6.251-.828,23.84,23.84,0,0,0,14.572-11.183l8-13.856a24,24,0,1,0-41.568-24l-8,13.856A24,24,0,0,0,406.513,96.1l-4.8,7.194c-1.768,2.652-3.592,5.263-5.446,7.851a39.842,39.842,0,0,0-15.137-2.09,58.017,58.017,0,0,0-19.464-8.444,63.739,63.739,0,0,0-14.681-1.621,63.127,63.127,0,0,0-6.043-13.435A58.01,58.01,0,0,0,326.9,69.65a39.923,39.923,0,0,0-33.86-29.437,40.022,40.022,0,0,0-73.6,0A39.924,39.924,0,0,0,185.584,69.65a58.021,58.021,0,0,0-14.047,15.9,63.7,63.7,0,0,0-6.072,13.459,63.056,63.056,0,0,0-14.651,1.6,58.018,58.018,0,0,0-19.466,8.444,39.926,39.926,0,0,0-38.459,23.107,40.021,40.021,0,0,0-22.742,69.993,39.922,39.922,0,0,0,17.533,41.3,58.01,58.01,0,0,0,10.784,18.274,63.744,63.744,0,0,0,10.925,9.935,63.141,63.141,0,0,0-3.01,14.426,57.951,57.951,0,0,0,1.088,17.349,206.32,206.32,0,0,0-61.9,92.915L16.633,485.373a8,8,0,0,0,7.607,10.472c.213,0,.427-.009.64-.025l102.966-8.252a207.005,207.005,0,0,0,128.41-58.624,206.522,206.522,0,0,0,128.38,58.624L487.6,495.82c.215.016.427.025.64.025a8,8,0,0,0,7.608-10.472ZM417.316,75.925l8-13.856a8,8,0,1,1,13.856,8l-8,13.856a8,8,0,0,1-10.927,2.929h0A8.008,8.008,0,0,1,417.316,75.925ZM341.21,462.576l6.815-63.351a39.02,39.02,0,0,0,11.934.313l26.947,20.667-5.742,50.966A190.692,190.692,0,0,1,341.21,462.576Zm-47.757-23.659,4.188-43.634a39.911,39.911,0,0,0,34.758-.048c-.048.24-.089.482-.116.729l-6.534,60.741A190.46,190.46,0,0,1,293.453,438.917Zm-106.72,17.789L180.2,395.964c-.026-.247-.067-.49-.116-.73a39.924,39.924,0,0,0,34.759.048l4.187,43.635A190.5,190.5,0,0,1,186.733,456.706Zm-55.414,14.465-5.742-50.966,26.946-20.667a39.027,39.027,0,0,0,11.935-.313l6.815,63.351A190.706,190.706,0,0,1,131.319,471.171Zm-46.57-118.63,33.03,12.011a39.963,39.963,0,0,0,16.2,27.653c.314.227.632.444.95.661l-19.034,14.6L63.583,393.348A190.45,190.45,0,0,1,84.749,352.541Zm29.407-6.332-19.338-7.032c3.549-4.316,7.272-8.5,11.2-12.5A39.943,39.943,0,0,0,114.156,346.209Zm1.213,126.307-64.764,5.191,60.151-46.135ZM219.8,374.305a7.921,7.921,0,0,0-5.688,2.237,23.948,23.948,0,0,1-30.732,2.107c-.128-.094-.251-.191-.376-.288l-.22-.172a8,8,0,0,0-10,.163,24.006,24.006,0,0,1-39.283-19.1c.008-.147,0-.294,0-.441a23.92,23.92,0,0,1,1.664-7.789,8,8,0,0,0-2.941-9.563l-.209-.141c-.139-.1-.28-.188-.411-.283a23.947,23.947,0,0,1-7.489-29.876,8,8,0,0,0,.369-6.1,42.249,42.249,0,0,1-2.167-17.563A47.972,47.972,0,0,1,153.1,246.974l35.926-10.883a145.694,145.694,0,0,1,38.273-6.152l-1.073.557a110.23,110.23,0,0,0-38.194,32.873,8,8,0,1,0,12.945,9.4A94.142,94.142,0,0,1,233.6,244.7l6.453-3.35a162.4,162.4,0,0,0-8.733,43.5c-1.387,2.3-2.877,4.565-4.453,6.735a7.981,7.981,0,0,0,3.925,12.278l-.5,25.213c0,.161,0,.321,0,.482a63.858,63.858,0,0,0,14.184,37.5,47.774,47.774,0,0,1-7.3,3.881A41.944,41.944,0,0,1,219.8,374.305Zm26.49-45.162.752-37.531a145.641,145.641,0,0,1,5.972-38.325l.2,1.217a110.22,110.22,0,0,0,19.46,46.483,8,8,0,0,0,12.945-9.4A94.149,94.149,0,0,1,269,251.881l-2.24-13.481,12.128,6.3a94.145,94.145,0,0,1,32.622,28.076,8,8,0,0,0,12.944-9.4A110.221,110.221,0,0,0,286.256,230.5l-1.094-.568a145.725,145.725,0,0,1,38.294,6.163l35.927,10.883a47.976,47.976,0,0,1,30.782,40.519A42.233,42.233,0,0,1,388,305.056a8,8,0,0,0,.369,6.1,23.946,23.946,0,0,1-7.483,29.873c-.137.1-.277.191-.416.286l-.21.141a8,8,0,0,0-2.94,9.563A24.01,24.01,0,0,1,339.7,378.352a8,8,0,0,0-10-.163l-.22.172c-.125.1-.248.194-.381.291a23.948,23.948,0,0,1-30.729-2.11,7.923,7.923,0,0,0-5.687-2.237c-.039,0-.077,0-.115,0a7.6,7.6,0,0,0-3.041-.066,41.921,41.921,0,0,1-14.219-3.3A47.973,47.973,0,0,1,246.287,329.143ZM448.9,393.348l-52.315,14.117-19.035-14.6c.318-.218.637-.434.951-.661a39.968,39.968,0,0,0,16.2-27.653l33.027-12.01A190.455,190.455,0,0,1,448.9,393.348Zm-50.572-47.14a39.94,39.94,0,0,0,8.136-19.533c3.93,4,7.651,8.186,11.2,12.5Zm3.4,85.364,60.152,46.135-64.764-5.191Zm70.946,34.249-60.1-46.1,41.482-11.194ZM406.129,141.575c.051.159.1.319.142.479l.07.245a8,8,0,0,0,8.187,5.754A24.009,24.009,0,0,1,428.9,192.274a8,8,0,0,0-3.242,9.467l.084.232c.058.159.117.318.168.475a23.947,23.947,0,0,1-11.5,28.572,8,8,0,0,0-3.885,4.718,42.268,42.268,0,0,1-8.569,15.484,47.875,47.875,0,0,1-5.963,5.72,63.859,63.859,0,0,0-31.269-25.055q-.227-.083-.457-.153l-24.127-7.308a8.006,8.006,0,0,0-10.473-7.53c-2.549.828-5.16,1.546-7.781,2.155a161.416,161.416,0,0,0-23.049-4.207A305.187,305.187,0,0,0,400.439,132.2,23.968,23.968,0,0,1,406.129,141.575ZM358.08,116.2a42.252,42.252,0,0,1,16.034,7.489,8,8,0,0,0,5.917,1.534,23.9,23.9,0,0,1,5.554-.108,288.746,288.746,0,0,1-60.53,55.676,7.976,7.976,0,0,0-1.235-6.578l15.224-20.094c.1-.128.19-.26.279-.394a63.858,63.858,0,0,0,10.569-38.67A47.666,47.666,0,0,1,358.08,116.2ZM185.256,93.786a42.268,42.268,0,0,1,12.08-12.937,8,8,0,0,0,3.286-5.152,23.948,23.948,0,0,1,23.619-19.769c.154,0,.306.007.457.012l.311.01a7.954,7.954,0,0,0,7.983-6.008,24.01,24.01,0,0,1,46.5,0,7.962,7.962,0,0,0,7.984,6.008l.31-.01c.152,0,.3-.012.457-.012A23.946,23.946,0,0,1,311.86,75.7a8,8,0,0,0,3.287,5.152,42.265,42.265,0,0,1,12.079,12.937,47.974,47.974,0,0,1-1.087,50.873L303.47,174.581a145.673,145.673,0,0,1-27.347,27.472l.541-1.081a110.223,110.223,0,0,0,11.577-49.044,8,8,0,0,0-16,0,94.139,94.139,0,0,1-9.888,41.888l-3.252,6.5a162.348,162.348,0,0,0-18.548-40.395c0-.189,0-.378-.017-.569-.2-2.463-.295-4.962-.295-7.428a8,8,0,0,0-10.4-7.633l-14.406-20.688c-.092-.133-.188-.262-.288-.389a63.876,63.876,0,0,0-33.515-22A47.742,47.742,0,0,1,185.256,93.786ZM110.532,251.222a42.239,42.239,0,0,1-8.569-15.484,8,8,0,0,0-3.886-4.718,23.947,23.947,0,0,1-11.5-28.567c.053-.162.112-.321.169-.48l.084-.232a8,8,0,0,0-3.241-9.467,24.009,24.009,0,0,1,14.368-44.221,7.987,7.987,0,0,0,8.187-5.754l.071-.245c.046-.16.09-.32.14-.474a23.935,23.935,0,0,1,26.1-16.355,8,8,0,0,0,5.917-1.534A42.252,42.252,0,0,1,154.4,116.2a47.97,47.97,0,0,1,48.048,16.754L223.9,163.761a145.656,145.656,0,0,1,17.679,34.5l-.862-.849a110.209,110.209,0,0,0-43.066-26.167,8,8,0,1,0-4.944,15.216,94.144,94.144,0,0,1,36.782,22.349l5.18,5.1a162.387,162.387,0,0,0-44.1,5.147c-.046-.012-.09-.029-.137-.04-2.554-.6-5.116-1.311-7.613-2.123a8,8,0,0,0-10.473,7.53l-24.127,7.308q-.231.071-.458.153A63.864,63.864,0,0,0,116.5,256.941,47.725,47.725,0,0,1,110.532,251.222ZM58.431,408.53l41.483,11.194-60.1,46.1ZM234.01,427.536l-3.651-38.046a58.08,58.08,0,0,0,13.075-3.825,63.643,63.643,0,0,0,12.823-7.323,63.106,63.106,0,0,0,12.792,7.323c.54.229,1.086.437,1.631.649A189.44,189.44,0,0,1,234.01,427.536Zm33.214-10.245a205.42,205.42,0,0,0,13.952-17.932l-2.7,28.172Q272.647,422.636,267.224,417.291Z"/></g></svg>
