<svg height="512" viewBox="0 0 512 512" width="512" xmlns="http://www.w3.org/2000/svg"><g id="filled_outline" data-name="filled outline"><g fill="#027e2a"><path d="m488 488-28.932-89.021a198.744 198.744 0 0 0 -68.059-96.271l-3.94-3.022a198.743 198.743 0 0 0 -138.354-40.279l-52.715 4.634 9.192 52.118a198.744 198.744 0 0 0 74.771 123.182 198.737 198.737 0 0 0 105.075 40.407z"/><path d="m299.96 368.76-7.61 79.34q-6.345-4.125-12.39-8.76c-.89-.68-1.78-1.37-2.65-2.07l6.72-70.03a8 8 0 0 1 15.93 1.52z"/><path d="m488 488-14.68-1.18-71.84-55.09-5.51 48.9-10.94-.88c-1.67-.13-3.34-.29-5-.47l6.63-58.92-38-29.15-8.56 79.64q-5.31-1.71-10.52-3.71c-1.66-.64-3.32-1.3-4.96-1.99l8.82-82.01a7.673 7.673 0 0 1 .48-1.97 7.9 7.9 0 0 1 -1.4-2.33l-134.46-103.14-2.06-11.66 11.79-1.04 134.93 103.5 82.67-30.06c3.47 4.34 6.76 8.83 9.83 13.45l-77.44 28.15 38.56 29.58 60.09-16.22q1.4 3.75 2.64 7.58l2.48 7.62-49.22 13.28 71.3 54.69z"/></g><path d="m299.96 368.76-7.61 79.34q-6.345-4.125-12.39-8.76c-.89-.68-1.78-1.37-2.65-2.07l6.72-70.03a8 8 0 0 1 15.93 1.52z" fill="#026a23"/><path d="m488 488-14.68-1.18-71.84-55.09-5.51 48.9-10.94-.88c-1.67-.13-3.34-.29-5-.47l6.63-58.92-38-29.15-8.56 79.64q-5.31-1.71-10.52-3.71c-1.66-.64-3.32-1.3-4.96-1.99l8.82-82.01a7.673 7.673 0 0 1 .48-1.97 7.9 7.9 0 0 1 -1.4-2.33l-134.46-103.14-2.06-11.66 11.79-1.04 134.93 103.5 82.67-30.06c3.47 4.34 6.76 8.83 9.83 13.45l-77.44 28.15 38.56 29.58 60.09-16.22q1.4 3.75 2.64 7.58l2.48 7.62-49.22 13.28 71.3 54.69z" fill="#026a23"/><g fill="#029532"><path d="m24 488 28.932-89.021a198.744 198.744 0 0 1 68.059-96.271l3.94-3.022a198.743 198.743 0 0 1 138.354-40.279l52.715 4.634-9.192 52.118a198.744 198.744 0 0 1 -74.771 123.182 198.737 198.737 0 0 1 -105.075 40.407z"/><path d="m234.69 437.27c-.87.7-1.76 1.39-2.65 2.07q-6.045 4.635-12.39 8.76l-7.61-79.34a8 8 0 0 1 15.93-1.52z"/><path d="m179.48 378.84a8.034 8.034 0 0 1 -1.4 2.33 7.673 7.673 0 0 1 .48 1.97l8.82 82.01c-1.64.69-3.3 1.35-4.96 1.99q-5.205 2.01-10.52 3.71l-8.56-79.64-38 29.15 6.63 58.92c-1.66.18-3.33.34-5 .47l-10.94.88-5.51-48.9-71.84 55.09-14.68 1.18 4.37-13.43 71.3-54.69-49.22-13.28 2.48-7.62q1.245-3.825 2.64-7.58l60.09 16.22 38.56-29.58-77.44-28.15c3.07-4.62 6.36-9.11 9.83-13.45l82.67 30.06 134.93-103.5 11.79 1.04-2.06 11.66z"/></g><path d="m234.69 437.27c-.87.7-1.76 1.39-2.65 2.07q-6.045 4.635-12.39 8.76l-7.61-79.34a8 8 0 0 1 15.93-1.52z" fill="#027226"/><path d="m320.87 270.39-6.93 5.31-134.46 103.14a8.034 8.034 0 0 1 -1.4 2.33 7.673 7.673 0 0 1 .48 1.97l8.82 82.01c-1.64.69-3.3 1.35-4.96 1.99q-5.205 2.01-10.52 3.71l-8.56-79.64-38 29.15 6.63 58.92c-1.66.18-3.33.34-5 .47l-10.94.88-5.51-48.9-71.84 55.09-14.68 1.18 4.37-13.43 71.3-54.69-49.22-13.28 2.48-7.62q1.245-3.825 2.64-7.58l60.09 16.22 38.56-29.58-77.44-28.15c3.07-4.62 6.36-9.11 9.83-13.45l82.67 30.06 134.93-103.5 6.93-5.31a8 8 0 0 1 9.73 12.7z" fill="#027226"/><path d="m407.743 256.629a50.486 50.486 0 0 0 10.186-18.4 32 32 0 0 0 15.345-38.1c-.1-.32-.221-.631-.333-.945a32.01 32.01 0 0 0 -19.158-58.962c-.093-.32-.182-.641-.286-.961a32 32 0 0 0 -34.811-21.806 50.509 50.509 0 0 0 -19.053-8.9 55.762 55.762 0 0 0 -56.264 19.773l-21.6 31.012a153.222 153.222 0 0 0 -25.769 64.743 153.214 153.214 0 0 0 58.9 37.225l35.7 12.4a55.761 55.761 0 0 0 57.143-17.079z" fill="#ff3444"/><path d="m300.394 237.623a109.065 109.065 0 0 1 -16.25-1.211l-29.335-4.418a8 8 0 0 1 -4.423-13.61l21.135-20.817a110.231 110.231 0 0 1 43.066-26.167 8 8 0 0 1 4.945 15.217 94.122 94.122 0 0 0 -36.783 22.349l-9.736 9.589 13.513 2.035a94.161 94.161 0 0 0 42.894-3.539 8 8 0 0 1 4.945 15.217 110.223 110.223 0 0 1 -33.971 5.355z" fill="#961b20"/><path d="m333.844 89.824a50.5 50.5 0 0 0 -14.344-15.372 32 32 0 0 0 -31.5-26.369c-.336 0-.669.015-1 .025a32.01 32.01 0 0 0 -62 0c-.333-.01-.666-.025-1-.025a32 32 0 0 0 -31.5 26.369 50.5 50.5 0 0 0 -14.348 15.372 55.764 55.764 0 0 0 1.419 59.62l22.829 30.122a153.217 153.217 0 0 0 53.6 44.517 153.217 153.217 0 0 0 53.605-44.517l22.821-30.122a55.761 55.761 0 0 0 1.418-59.62z" fill="#e82f3e"/><path d="m256 232.083a8 8 0 0 1 -7.155-4.422l-13.267-26.533a110.221 110.221 0 0 1 -11.578-49.045 8 8 0 1 1 16 0 94.145 94.145 0 0 0 9.889 41.89l6.111 12.221 6.112-12.223a94.139 94.139 0 0 0 9.888-41.888 8 8 0 1 1 16 0 110.211 110.211 0 0 1 -11.578 49.044l-13.267 26.534a8 8 0 0 1 -7.155 4.422z" fill="#961b20"/><path d="m152.367 108.56a50.509 50.509 0 0 0 -19.053 8.9 32 32 0 0 0 -34.814 21.802c-.1.32-.193.641-.286.961a32.01 32.01 0 0 0 -19.158 58.962c-.112.314-.23.625-.333.945a32 32 0 0 0 15.345 38.1 50.486 50.486 0 0 0 10.186 18.4 55.761 55.761 0 0 0 57.146 17.07l35.7-12.4a153.214 153.214 0 0 0 58.9-37.217 153.222 153.222 0 0 0 -25.773-64.738l-21.6-31.012a55.762 55.762 0 0 0 -56.26-19.773z" fill="#ff3444"/><path d="m211.606 237.623a110.193 110.193 0 0 1 -33.971-5.355 8 8 0 0 1 4.945-15.217 94.148 94.148 0 0 0 42.894 3.539l13.513-2.035-9.736-9.589a94.136 94.136 0 0 0 -36.783-22.349 8 8 0 0 1 4.945-15.217 110.233 110.233 0 0 1 43.066 26.167l21.135 20.817a8 8 0 0 1 -4.423 13.61l-29.335 4.418a109.2 109.2 0 0 1 -16.25 1.211z" fill="#961b20"/><path d="m114.107 286.945a50.5 50.5 0 0 0 2.573 20.87 32 32 0 0 0 9.981 39.846c.272.2.55.381.826.568a32.01 32.01 0 0 0 50.155 36.441c.264.2.524.412.8.609a32 32 0 0 0 40.981-2.82 50.519 50.519 0 0 0 20.643-4 55.761 55.761 0 0 0 33.9-49.068l-.757-37.783a153.228 153.228 0 0 0 -17.209-67.525 153.214 153.214 0 0 0 -69.534 4.507l-36.166 10.955a55.762 55.762 0 0 0 -36.193 47.4z" fill="#e82f3e"/><path d="m233.09 304.44a8 8 0 0 1 -6.466-12.7 94.171 94.171 0 0 0 16.622-39.7l2.239-13.481-12.128 6.3a94.154 94.154 0 0 0 -32.622 28.076 8 8 0 0 1 -12.944-9.4 110.251 110.251 0 0 1 38.194-32.873l26.329-13.668a8 8 0 0 1 11.578 8.413l-4.863 29.264a110.253 110.253 0 0 1 -19.461 46.483 7.993 7.993 0 0 1 -6.478 3.286z" fill="#961b20"/><path d="m271.938 378.457a50.519 50.519 0 0 0 20.643 4 32 32 0 0 0 40.981 2.82c.272-.2.532-.4.8-.609a32.01 32.01 0 0 0 50.155-36.441c.276-.187.554-.37.826-.568a32 32 0 0 0 9.981-39.846 50.5 50.5 0 0 0 2.573-20.87 55.762 55.762 0 0 0 -36.192-47.4l-36.171-10.953a153.214 153.214 0 0 0 -69.534-4.507 153.228 153.228 0 0 0 -17.2 67.523l-.757 37.783a55.761 55.761 0 0 0 33.895 49.068z" fill="#ff3444"/><path d="m278.911 304.44a7.992 7.992 0 0 1 -6.479-3.3 110.226 110.226 0 0 1 -19.46-46.483l-4.864-29.257a8 8 0 0 1 11.578-8.413l26.329 13.668a110.251 110.251 0 0 1 38.194 32.873 8 8 0 0 1 -12.944 9.4 94.154 94.154 0 0 0 -32.622-28.076l-12.128-6.3 2.24 13.481a94.151 94.151 0 0 0 16.621 39.7 8 8 0 0 1 -6.465 12.7z" fill="#961b20"/><path d="m256 232.085a8 8 0 0 1 -2.529-15.592 288.305 288.305 0 0 0 148.005-113.045l11.209-15.366c2.452-3.676 4.076-1.1 7.753 1.345s8.749 1.3 6.3 4.972l-11.948 17.924a304.392 304.392 0 0 1 -156.26 119.35 8.015 8.015 0 0 1 -2.53.412z" fill="#961b20"/><rect fill="#fbb540" height="48" rx="16" transform="matrix(.866 .5 -.5 .866 93.918 -204.201)" width="32" x="412.003" y="49.152"/><path d="m495.85 485.373-28.932-89.021a206.347 206.347 0 0 0 -61.9-92.915 57.951 57.951 0 0 0 1.088-17.349 63.132 63.132 0 0 0 -3.01-14.425 63.8 63.8 0 0 0 10.926-9.937 58.029 58.029 0 0 0 10.778-18.273 39.926 39.926 0 0 0 17.533-41.3 40.021 40.021 0 0 0 -22.742-69.993 39.833 39.833 0 0 0 -9.483-12.869c1.669-2.353 3.317-4.721 4.919-7.124l5.668-8.5a23.638 23.638 0 0 0 3.507.271 24.137 24.137 0 0 0 6.251-.828 23.84 23.84 0 0 0 14.572-11.183l8-13.856a24 24 0 1 0 -41.568-24l-8 13.856a24 24 0 0 0 3.056 28.173l-4.8 7.194c-1.768 2.652-3.592 5.263-5.446 7.851a39.842 39.842 0 0 0 -15.137-2.09 58.017 58.017 0 0 0 -19.464-8.444 63.739 63.739 0 0 0 -14.681-1.621 63.127 63.127 0 0 0 -6.043-13.435 58.01 58.01 0 0 0 -14.042-15.905 39.923 39.923 0 0 0 -33.86-29.437 40.022 40.022 0 0 0 -73.6 0 39.924 39.924 0 0 0 -33.856 29.437 58.021 58.021 0 0 0 -14.047 15.9 63.7 63.7 0 0 0 -6.072 13.459 63.056 63.056 0 0 0 -14.651 1.6 58.018 58.018 0 0 0 -19.466 8.444 39.926 39.926 0 0 0 -38.459 23.107 40.021 40.021 0 0 0 -22.742 69.993 39.922 39.922 0 0 0 17.533 41.3 58.01 58.01 0 0 0 10.784 18.274 63.744 63.744 0 0 0 10.925 9.935 63.141 63.141 0 0 0 -3.01 14.426 57.951 57.951 0 0 0 1.088 17.349 206.32 206.32 0 0 0 -61.9 92.915l-28.934 89.021a8 8 0 0 0 7.607 10.472c.213 0 .427-.009.64-.025l102.966-8.252a207.005 207.005 0 0 0 128.41-58.624 206.522 206.522 0 0 0 128.38 58.624l102.964 8.252c.215.016.427.025.64.025a8 8 0 0 0 7.608-10.472zm-78.534-409.448 8-13.856a8 8 0 1 1 13.856 8l-8 13.856a8 8 0 0 1 -10.927 2.929 8.008 8.008 0 0 1 -2.929-10.929zm-76.106 386.651 6.815-63.351a39.02 39.02 0 0 0 11.934.313l26.947 20.667-5.742 50.966a190.692 190.692 0 0 1 -39.954-8.595zm-47.757-23.659 4.188-43.634a39.911 39.911 0 0 0 34.758-.048c-.048.24-.089.482-.116.729l-6.534 60.741a190.46 190.46 0 0 1 -32.296-17.788zm-106.72 17.789-6.533-60.742c-.026-.247-.067-.49-.116-.73a39.924 39.924 0 0 0 34.759.048l4.187 43.635a190.5 190.5 0 0 1 -32.297 17.789zm-55.414 14.465-5.742-50.966 26.946-20.667a39.027 39.027 0 0 0 11.935-.313l6.815 63.351a190.706 190.706 0 0 1 -39.954 8.595zm-46.57-118.63 33.03 12.011a39.963 39.963 0 0 0 16.2 27.653c.314.227.632.444.95.661l-19.034 14.6-52.312-14.118a190.45 190.45 0 0 1 21.166-40.807zm29.407-6.332-19.338-7.032c3.549-4.316 7.272-8.5 11.2-12.5a39.943 39.943 0 0 0 8.138 19.532zm1.213 126.307-64.764 5.191 60.151-46.135zm104.431-98.211a7.921 7.921 0 0 0 -5.688 2.237 23.948 23.948 0 0 1 -30.732 2.107c-.128-.094-.251-.191-.376-.288l-.22-.172a8 8 0 0 0 -10 .163 24.006 24.006 0 0 1 -39.283-19.1c.008-.147 0-.294 0-.441a23.92 23.92 0 0 1 1.664-7.789 8 8 0 0 0 -2.941-9.563l-.209-.141c-.139-.1-.28-.188-.411-.283a23.947 23.947 0 0 1 -7.489-29.876 8 8 0 0 0 .369-6.1 42.249 42.249 0 0 1 -2.167-17.563 47.972 47.972 0 0 1 30.783-40.522l35.926-10.883a145.694 145.694 0 0 1 38.273-6.152l-1.073.557a110.23 110.23 0 0 0 -38.194 32.873 8 8 0 1 0 12.945 9.4 94.142 94.142 0 0 1 32.623-28.069l6.453-3.35a162.4 162.4 0 0 0 -8.733 43.5c-1.387 2.3-2.877 4.565-4.453 6.735a7.981 7.981 0 0 0 3.925 12.278l-.5 25.213v.482a63.858 63.858 0 0 0 14.184 37.5 47.774 47.774 0 0 1 -7.3 3.881 41.944 41.944 0 0 1 -17.376 3.366zm26.49-45.162.752-37.531a145.641 145.641 0 0 1 5.972-38.325l.2 1.217a110.22 110.22 0 0 0 19.46 46.483 8 8 0 0 0 12.945-9.4 94.149 94.149 0 0 1 -16.619-39.706l-2.24-13.481 12.128 6.3a94.145 94.145 0 0 1 32.622 28.076 8 8 0 0 0 12.944-9.4 110.221 110.221 0 0 0 -38.198-32.876l-1.094-.568a145.725 145.725 0 0 1 38.294 6.163l35.927 10.883a47.976 47.976 0 0 1 30.782 40.519 42.233 42.233 0 0 1 -2.165 17.559 8 8 0 0 0 .369 6.1 23.946 23.946 0 0 1 -7.483 29.873c-.137.1-.277.191-.416.286l-.21.141a8 8 0 0 0 -2.94 9.563 24.01 24.01 0 0 1 -37.62 27.333 8 8 0 0 0 -10-.163l-.22.172c-.125.1-.248.194-.381.291a23.948 23.948 0 0 1 -30.729-2.11 7.923 7.923 0 0 0 -5.687-2.237c-.039 0-.077 0-.115 0a7.6 7.6 0 0 0 -3.041-.066 41.921 41.921 0 0 1 -14.219-3.3 47.973 47.973 0 0 1 -29.021-41.796zm202.61 64.205-52.315 14.117-19.035-14.6c.318-.218.637-.434.951-.661a39.968 39.968 0 0 0 16.2-27.653l33.027-12.01a190.455 190.455 0 0 1 21.172 40.807zm-50.572-47.14a39.94 39.94 0 0 0 8.136-19.533c3.93 4 7.651 8.186 11.2 12.5zm3.4 85.364 60.152 46.135-64.764-5.191zm70.946 34.249-60.1-46.1 41.482-11.194zm-66.545-324.246c.051.159.1.319.142.479l.07.245a8 8 0 0 0 8.187 5.754 24.009 24.009 0 0 1 14.372 44.221 8 8 0 0 0 -3.242 9.467l.084.232c.058.159.117.318.168.475a23.947 23.947 0 0 1 -11.5 28.572 8 8 0 0 0 -3.885 4.718 42.268 42.268 0 0 1 -8.569 15.484 47.875 47.875 0 0 1 -5.963 5.72 63.859 63.859 0 0 0 -31.269-25.055q-.227-.083-.457-.153l-24.127-7.308a8.006 8.006 0 0 0 -10.473-7.53c-2.549.828-5.16 1.546-7.781 2.155a161.416 161.416 0 0 0 -23.049-4.207 305.187 305.187 0 0 0 101.602-82.644 23.968 23.968 0 0 1 5.69 9.375zm-48.049-25.375a42.252 42.252 0 0 1 16.034 7.489 8 8 0 0 0 5.917 1.534 23.9 23.9 0 0 1 5.554-.108 288.746 288.746 0 0 1 -60.53 55.676 7.976 7.976 0 0 0 -1.235-6.578l15.224-20.094c.1-.128.19-.26.279-.394a63.858 63.858 0 0 0 10.569-38.67 47.666 47.666 0 0 1 8.188 1.145zm-172.824-22.414a42.268 42.268 0 0 1 12.08-12.937 8 8 0 0 0 3.286-5.152 23.948 23.948 0 0 1 23.619-19.769c.154 0 .306.007.457.012l.311.01a7.954 7.954 0 0 0 7.983-6.008 24.01 24.01 0 0 1 46.5 0 7.962 7.962 0 0 0 7.984 6.008l.31-.01c.152 0 .3-.012.457-.012a23.946 23.946 0 0 1 23.617 19.772 8 8 0 0 0 3.287 5.152 42.265 42.265 0 0 1 12.079 12.937 47.974 47.974 0 0 1 -1.087 50.873l-22.669 29.919a145.673 145.673 0 0 1 -27.347 27.472l.541-1.081a110.223 110.223 0 0 0 11.577-49.044 8 8 0 0 0 -16 0 94.139 94.139 0 0 1 -9.888 41.888l-3.252 6.5a162.348 162.348 0 0 0 -18.548-40.395c0-.189 0-.378-.017-.569-.2-2.463-.295-4.962-.295-7.428a8 8 0 0 0 -10.4-7.633l-14.406-20.688c-.092-.133-.188-.262-.288-.389a63.876 63.876 0 0 0 -33.515-22 47.742 47.742 0 0 1 3.624-7.428zm-74.724 157.436a42.239 42.239 0 0 1 -8.569-15.484 8 8 0 0 0 -3.886-4.718 23.947 23.947 0 0 1 -11.5-28.567c.053-.162.112-.321.169-.48l.084-.232a8 8 0 0 0 -3.241-9.467 24.009 24.009 0 0 1 14.368-44.221 7.987 7.987 0 0 0 8.187-5.754l.071-.245c.046-.16.09-.32.14-.474a23.935 23.935 0 0 1 26.1-16.355 8 8 0 0 0 5.917-1.534 42.252 42.252 0 0 1 16.028-7.491 47.97 47.97 0 0 1 48.048 16.754l21.452 30.807a145.656 145.656 0 0 1 17.679 34.5l-.862-.849a110.209 110.209 0 0 0 -43.066-26.167 8 8 0 1 0 -4.944 15.216 94.144 94.144 0 0 1 36.782 22.349l5.18 5.1a162.387 162.387 0 0 0 -44.1 5.147c-.046-.012-.09-.029-.137-.04-2.554-.6-5.116-1.311-7.613-2.123a8 8 0 0 0 -10.473 7.53l-24.127 7.308q-.231.071-.458.153a63.864 63.864 0 0 0 -31.261 25.056 47.725 47.725 0 0 1 -5.968-5.719zm-52.101 157.308 41.483 11.194-60.1 46.1zm175.579 19.006-3.651-38.046a58.08 58.08 0 0 0 13.075-3.825 63.643 63.643 0 0 0 12.823-7.323 63.106 63.106 0 0 0 12.792 7.323c.54.229 1.086.437 1.631.649a189.44 189.44 0 0 1 -36.67 41.222zm33.214-10.245a205.42 205.42 0 0 0 13.952-17.932l-2.7 28.172q-5.829-4.895-11.252-10.24z"/></g></svg>