<?xml version="1.0"?>
<svg xmlns="http://www.w3.org/2000/svg" viewBox="0 0 64 64" width="512" height="512"><path d="m51 3h-4l-16 26-24.761 19.3a6.713 6.713 0 0 0 -2.216 6.79 6.639 6.639 0 0 0 .369 1.054l-1.392 1.856 3 3 1.543-1.543a6.632 6.632 0 0 0 8.156-1.7l18.301-21.757 1-3a61.03 61.03 0 0 1 5.185-11.46zm-34.645 50.833a9.749 9.749 0 0 1 -9.355 1.167 9.749 9.749 0 0 0 9.355-1.167l6.645-4.833z" fill="#dffa96"/><path d="m25.868 33-19.629 15.3a6.713 6.713 0 0 0 -2.216 6.79 6.639 6.639 0 0 0 .369 1.054l-1.392 1.856 3 3 1.543-1.543a6.632 6.632 0 0 0 8.156-1.7l5.635-6.7a21.257 21.257 0 0 0 4.534-18.057z" fill="#e7fab4"/><path d="m42 18 9-15h-4l-13 21z" fill="#b7d663"/><path d="m16.231 49.819a4.405 4.405 0 0 0 -7.1-3.769l-2.892 2.25a6.713 6.713 0 0 0 -2.216 6.79 6.639 6.639 0 0 0 .369 1.054l-1.392 1.856 3 3 1.543-1.543a6.583 6.583 0 0 0 5.82.1 4.347 4.347 0 0 0 2.462-3.67z" fill="#edfacb"/><path d="m38 26 23-8v3l-25.999 11.997z" fill="#b7d663"/><path d="m42.158 18.158 16.842-15.158 2 2-20 20-3 1z" fill="#b7d663"/><path d="m61.707 4.293-2-2a1 1 0 0 0 -1.376-.036l-12.084 10.875 5.617-9.632a1 1 0 0 0 -.864-1.5h-4a1 1 0 0 0 -.852.476l-15.905 25.846-24.643 19.21a7.762 7.762 0 0 0 -2.547 7.8c.054.214.121.433.2.66l-1.053 1.408a1 1 0 0 0 .093 1.307l3 3a1 1 0 0 0 1.414 0l1.055-1.055a7 7 0 0 0 .905.3 7.752 7.752 0 0 0 7.8-2.543l18.3-21.76a.994.994 0 0 0 .184-.328l.864-2.593 25.604-11.82a1 1 0 0 0 .581-.908v-3a1 1 0 0 0 -1.329-.944l-15.813 5.5 16.849-16.849a1 1 0 0 0 0-1.414zm-28.595 31.207-10.687 12.71-.013-.019-6.645 4.833a8.7 8.7 0 0 1 -8.395 1.047l-.744 1.858a10.7 10.7 0 0 0 10.315-1.287l.187-.136-2.2 2.614a5.627 5.627 0 0 1 -6.94 1.443 1 1 0 0 0 -1.154.187l-.836.836-1.68-1.68.872-1.163a1 1 0 0 0 .117-1 5.591 5.591 0 0 1 -.316-.9 5.737 5.737 0 0 1 1.861-5.753l24.761-19.3a1 1 0 0 0 .237-.265l15.707-25.525h1.7l-9.938 17.036a62.243 62.243 0 0 0 -5.269 11.644zm26.888-15.14-23.243 10.724q.809-2.139 1.778-4.212l21.465-7.466zm-19.478 3.7-.72.251c.4-.765.812-1.526 1.247-2.271l1.894-3.24 16.021-14.422.622.622z"/></svg>
