<svg xmlns="http://www.w3.org/2000/svg" height="596pt" version="1.1" viewBox="0 0 596.04801 596" width="596pt">
<g id="surface1">
<path d="M 593.089844 22.800781 L 573.222656 2.933594 C 569.488281 -0.800781 563.480469 -0.957031 559.554688 2.574219 L 439.519531 110.601562 L 495.316406 14.921875 C 498.058594 10.171875 496.429688 4.097656 491.679688 1.355469 C 490.175781 0.488281 488.46875 0.0273438 486.734375 0.0234375 L 447 0.0234375 C 443.550781 0.0234375 440.34375 1.8125 438.535156 4.75 L 280.546875 261.488281 L 35.757812 452.308594 C 13.25 471.203125 3.4375 501.25 10.460938 529.789062 C 10.996094 531.914062 11.660156 534.089844 12.445312 536.347656 L 1.984375 550.332031 C -0.980469 554.285156 -0.585938 559.820312 2.910156 563.3125 L 32.710938 593.113281 C 36.589844 596.992188 42.875 596.992188 46.753906 593.113281 L 57.234375 582.632812 C 60.160156 583.828125 63.164062 584.824219 66.226562 585.613281 C 94.753906 592.667969 124.816406 582.867188 143.703125 560.351562 L 325.484375 344.203125 C 326.296875 343.242188 326.914062 342.136719 327.3125 340.945312 L 335.894531 315.1875 L 590.226562 197.777344 C 593.746094 196.152344 596 192.632812 596 188.757812 L 596 158.957031 C 595.996094 153.472656 591.550781 149.027344 586.0625 149.027344 C 584.953125 149.027344 583.847656 149.214844 582.800781 149.582031 L 425.722656 204.214844 L 593.089844 36.847656 C 596.96875 32.96875 596.96875 26.679688 593.089844 22.800781 Z M 309.046875 332.792969 L 202.886719 459.042969 L 202.757812 458.855469 L 136.753906 506.863281 C 112.625 524.523438 81.085938 528.457031 53.363281 517.261719 L 45.972656 535.71875 C 80.039062 549.449219 118.785156 544.613281 148.433594 522.9375 L 150.292969 521.585938 L 128.4375 547.550781 C 111.734375 568.019531 82.980469 574 59.5 561.882812 C 55.679688 559.972656 51.0625 560.722656 48.039062 563.742188 L 39.734375 572.046875 L 23.046875 555.359375 L 31.707031 543.808594 C 33.855469 540.945312 34.300781 537.152344 32.871094 533.875 C 31.570312 530.988281 30.523438 527.996094 29.730469 524.933594 C 24.542969 503.921875 31.703125 481.777344 48.21875 467.789062 L 294.175781 276.074219 C 295.113281 275.34375 295.910156 274.453125 296.53125 273.441406 L 452.550781 19.890625 L 469.4375 19.890625 L 370.722656 189.113281 C 349.351562 225.773438 331.8125 264.53125 318.382812 304.777344 Z M 576.132812 182.398438 L 345.253906 288.925781 C 350.609375 274.761719 356.496094 260.8125 362.914062 247.085938 L 576.132812 172.921875 Z M 382.652344 219.152344 L 375.5 221.644531 C 379.472656 214.046875 383.566406 206.488281 387.886719 199.089844 L 406.699219 166.902344 L 565.839844 23.644531 L 572.019531 29.824219 Z M 382.652344 219.152344 " style=" stroke:none;fill-rule:nonzero;fill:rgb(0%,0%,0%);fill-opacity:1;" />
</g>
</svg>