<svg id="Layer_1" enable-background="new 0 0 512 512" height="512" viewBox="0 0 512 512" width="512" xmlns="http://www.w3.org/2000/svg"><g><g><path d="m384.688 78h-1.188v-34.29c8.729-3.096 15-11.433 15-21.21 0-12.406-10.094-22.5-22.5-22.5h-184.23c-4.143 0-7.5 3.357-7.5 7.5s3.357 7.5 7.5 7.5h184.23c4.136 0 7.5 3.364 7.5 7.5s-3.364 7.5-7.5 7.5h-240c-4.136 0-7.5-3.364-7.5-7.5s3.364-7.5 7.5-7.5h24.385c4.143 0 7.5-3.357 7.5-7.5s-3.357-7.5-7.5-7.5h-24.385c-12.406 0-22.5 10.094-22.5 22.5 0 9.777 6.271 18.114 15 21.21v34.29h-1.188c-27.466 0-49.812 22.346-49.812 49.813v255.957c0 4.143 3.357 7.5 7.5 7.5s7.5-3.357 7.5-7.5v-234.149h259.27c4.143 0 7.5-3.357 7.5-7.5s-3.357-7.5-7.5-7.5h-259.27v-6.809c0-19.195 15.617-34.812 34.813-34.812h257.375c19.195 0 34.813 15.617 34.813 34.813v6.809h-34.808c-4.143 0-7.5 3.357-7.5 7.5s3.357 7.5 7.5 7.5h34.807v312.566c0 19.195-15.617 34.813-34.813 34.813h-257.374c-19.195 0-34.813-15.617-34.813-34.813v-46.213c0-4.143-3.357-7.5-7.5-7.5s-7.5 3.357-7.5 7.5v46.213c0 27.466 22.346 49.812 49.813 49.812h257.375c27.467 0 49.813-22.346 49.813-49.813v-334.374c-.001-27.467-22.347-49.813-49.813-49.813zm-241.188 0v-33h225v33z"/><path d="m104.575 306.463c.41 3.724 2.245 7.064 5.166 9.407l14.79 11.858c2.582 2.07 5.679 3.076 8.756 3.076 4.111 0 8.188-1.796 10.955-5.245l57.592-71.826c4.836-6.033 3.863-14.876-2.169-19.711l-14.788-11.858c-2.922-2.343-6.584-3.406-10.305-2.998-3.724.41-7.064 2.245-9.407 5.167l-57.592 71.825c-2.343 2.923-3.407 6.582-2.998 10.305zm71.681-71.984 13.264 10.634-56.369 70.301-13.263-10.635z"/><path d="m288.631 168.276h-164.836c-8.867 0-16.082 7.215-16.082 16.082v14.836c0 8.867 7.215 16.082 16.082 16.082h164.836c8.867 0 16.082-7.215 16.082-16.082v-14.836c0-8.867-7.215-16.082-16.082-16.082zm1.082 30.918c0 .597-.485 1.082-1.082 1.082h-164.836c-.597 0-1.082-.485-1.082-1.082v-14.836c0-.597.485-1.082 1.082-1.082h164.836c.597 0 1.082.485 1.082 1.082z"/><path d="m271.76 282.926c-3.721-.396-7.381.67-10.299 3.019s-4.746 5.692-5.147 9.415l-2.039 18.848c-.401 3.724.67 7.381 3.019 10.299s5.692 4.746 9.415 5.148l91.53 9.896c.515.056 1.026.084 1.536.084 3.184-.001 6.249-1.076 8.765-3.102 2.918-2.349 4.746-5.692 5.147-9.415l2.039-18.847c.829-7.686-4.748-14.615-12.434-15.448zm87.119 41.606-89.586-9.687 1.828-16.901 89.586 9.687z"/><path d="m404.824 234.64c2.202-3.688 2.835-8.015 1.782-12.179l-3.632-14.385c-2.17-8.598-10.932-13.828-19.529-11.655l-159.819 40.353c-4.165 1.051-7.671 3.662-9.873 7.351-2.201 3.688-2.835 8.014-1.783 12.179l3.632 14.385c1.051 4.165 3.662 7.671 7.351 9.873 2.525 1.507 5.348 2.278 8.214 2.278 1.32 0 2.65-.164 3.965-.496l159.82-40.353c4.164-1.052 7.671-3.663 9.872-7.351zm-12.881-7.688c-.104.176-.305.404-.664.495l-159.82 40.353c-.361.089-.645-.016-.82-.12s-.403-.305-.494-.664l-3.632-14.385c-.09-.358.016-.644.12-.819.105-.176.306-.404.665-.495l159.819-40.353c.089-.022.178-.032.265-.032.484 0 .926.327 1.05.816l3.632 14.386c.09.359-.015.643-.121.818z"/></g></g></svg>