<svg id="Capa_1" enable-background="new 0 0 512 512" height="512" viewBox="0 0 512 512" width="512" xmlns="http://www.w3.org/2000/svg"><g><path d="m410.027 205.177c1.518-3.695 2.361-7.736 2.361-11.972 0-17.433-14.183-31.615-31.615-31.615h-75.878c-1.819-16.257-8.637-31.64-19.603-43.94-12.563-14.091-29.739-23.24-48.366-25.76-3.953-.535-7.434-2.997-9.31-6.587-20.975-40.124-71.02-51.455-106.922-27.66-3.453 2.288-4.396 6.942-2.108 10.395 2.289 3.453 6.942 4.397 10.395 2.108 28.723-19.037 68.633-9.856 85.341 22.105 4.127 7.895 11.825 13.317 20.592 14.502 15.083 2.041 28.998 9.456 39.18 20.877 8.515 9.551 13.931 21.397 15.669 33.959h-170.336c-17.601-17.743-22.362-44.824-11.365-67.531 1.805-3.728.246-8.213-3.482-10.019-3.729-1.805-8.214-.246-10.019 3.482-11.676 24.114-9.266 52.318 5.542 74.068h-47.091c-17.433 0-31.615 14.182-31.615 31.615 0 16.678 12.984 30.372 29.374 31.527 30.511 88.685 15.631 175.421 46.375 210.249h-28.906c-18.77 0-29.465 21.505-18.104 36.451 3.206 4.216 5.813 8.072 7.971 11.789 10.31 17.752 29.242 28.78 49.408 28.78h152.874c4.142 0 7.5-3.358 7.5-7.5s-3.358-7.5-7.5-7.5h-152.874c-14.84 0-28.801-8.167-36.436-21.313-2.473-4.257-5.417-8.619-9.001-13.334-3.86-5.077-.236-12.372 6.163-12.372h297.303c6.402 0 10.021 7.299 6.163 12.372-3.584 4.714-6.528 9.076-9 13.334-7.636 13.146-21.598 21.313-36.437 21.313h-30.154c-4.142 0-7.5 3.358-7.5 7.5s3.358 7.5 7.5 7.5h30.154c20.166 0 39.098-11.028 49.408-28.78 2.158-3.716 4.765-7.572 7.971-11.789 11.359-14.943.669-36.451-18.104-36.451h-28.919c8.178-9.263 12.568-21.371 15.514-33.322 37.523 3.809 79.589-1.383 107.907-26.748 20.277-18.162 30.558-43.609 30.558-75.632-.002-47.3-35.077-86.979-80.578-94.101zm-251.192-28.587h221.937c9.162 0 16.615 7.453 16.615 16.615s-7.454 16.615-16.615 16.615h-195.866c-4.137-6.247-11.171-10.067-18.731-10.067h-7.34zm25.98 70.004v34.385c0 7.609-6.191 13.8-13.801 13.8h-39.359c-7.609 0-13.8-6.191-13.8-13.8v-34.385c0-4.237 1.098-8.428 3.176-12.12l8.957-15.917c1.321-2.347 3.814-3.805 6.507-3.805h29.68c2.693 0 5.186 1.458 6.507 3.805l8.957 15.917c2.078 3.692 3.176 7.883 3.176 12.12zm-148.418-53.389c0-9.162 7.454-16.615 16.615-16.615h90.823v23.162h-7.34c-7.56 0-14.594 3.821-18.731 10.067h-64.752c-9.162.001-16.615-7.452-16.615-16.614zm296.964 218.304c-6.617 16.453-16.417 23.472-32.771 23.472h-167.396c-16.354 0-26.154-7.02-32.771-23.472-14.927-37.114-9.348-111.505-33.814-186.689h42.643l-1.293 2.298c-3.339 5.933-5.103 12.668-5.103 19.476v34.385c0 15.88 12.92 28.8 28.8 28.8h39.359c15.881 0 28.801-12.92 28.801-28.8v-34.385c0-6.809-1.765-13.543-5.104-19.476l-1.293-2.298h173.754c-24.455 75.153-18.891 149.588-33.812 186.689zm38.531-146.434c6.923-4.735 15.156-7.327 23.459-7.327 22.899 0 41.53 18.63 41.53 41.53 0 16.319-4.199 28.012-12.837 35.749-4.641 4.157-22.676 17.069-63.975 13.439 2.977-28 5.684-54.897 11.823-83.391zm78.146 98.662c-20.988 18.799-54.588 26.973-94.885 23.159 1.257-7.367 2.302-15.231 3.27-23.526 25.003 2.156 56.76-.269 75.63-17.17 11.997-10.746 17.829-26.094 17.829-46.922 0-31.17-25.359-56.53-56.53-56.53-6.424 0-12.811 1.136-18.854 3.293 1.911-7.078 4.067-14.188 6.517-21.31 5.853-.412 11.269-2.422 15.816-5.599 42.556 1.839 76.773 37.266 76.773 80.145-.001 27.578-8.602 49.265-25.566 64.46zm-156.071-279.932c23.105 0 41.903-18.797 41.903-41.903 0-23.105-18.798-41.902-41.903-41.902s-41.902 18.797-41.902 41.902c-.001 23.106 18.797 41.903 41.902 41.903zm0-68.805c14.835 0 26.903 12.068 26.903 26.902s-12.068 26.903-26.903 26.903c-14.834 0-26.902-12.068-26.902-26.903 0-14.834 12.068-26.902 26.902-26.902zm-57.547 358.755c-3.122-2.721-7.86-2.397-10.581.727-2.259 2.593-5.52 4.08-8.947 4.08s-6.688-1.487-8.947-4.08c-2.721-3.122-7.46-3.448-10.581-.727-3.123 2.721-3.448 7.458-.727 10.582 5.109 5.863 12.492 9.225 20.255 9.225s15.146-3.362 20.255-9.225c2.722-3.123 2.397-7.86-.727-10.582zm-81.05-31.699c-11.726 0-21.265 9.539-21.265 21.265 0 4.142 3.358 7.5 7.5 7.5s7.5-3.358 7.5-7.5c0-3.455 2.811-6.265 6.265-6.265 3.455 0 6.265 2.81 6.265 6.265 0 4.142 3.358 7.5 7.5 7.5s7.5-3.358 7.5-7.5c0-11.725-9.54-21.265-21.265-21.265zm123.045 0c-11.726 0-21.265 9.539-21.265 21.265 0 4.142 3.358 7.5 7.5 7.5s7.5-3.358 7.5-7.5c0-3.455 2.811-6.265 6.265-6.265s6.265 2.81 6.265 6.265c0 4.142 3.358 7.5 7.5 7.5s7.5-3.358 7.5-7.5c0-11.725-9.54-21.265-21.265-21.265z"/></g></svg>