<svg id="Layer_1" enable-background="new 0 0 512.002 512.002" height="512" viewBox="0 0 512.002 512.002" width="512" xmlns="http://www.w3.org/2000/svg"><g><g clip-rule="evenodd" fill-rule="evenodd"><g fill="#efb789"><path d="m146.001 240.001v-49.999h-15c-13.75 0-25 11.25-25 25s11.25 25 25 25z"/><path d="m146.001 160.002v30 50c74.832 0 73.168-27.031 110-27.031s35.168 27.031 110 27.031v-49.999-30c0-60.5-49.5-110-110-110-60.5-.001-110 49.499-110 109.999z"/><path d="m366.001 190.002v50h15c13.75 0 25-11.25 25-25s-11.25-25-25-25z"/></g><path d="m366.001 240.001c-74.832.001-73.168-27.031-110-27.031s-35.168 27.031-110 27.031c0 51.207 7.164 94.534 70 106.636 11.403 2.196 24.64 3.364 40 3.364s28.597-1.168 40-3.364c62.836-12.102 70-55.429 70-106.636z" fill="#5cd0b3"/><path d="m146.001 116.164h220c23.036-6.167 40-27.183 40-52.163 0-29.823-24.177-54-54-54-20.899 0-39.023 11.873-48 29.241-8.977-17.368-27.101-29.242-48-29.242s-39.023 11.873-48 29.242c-8.977-17.368-27.101-29.242-48-29.242-29.823 0-54 24.177-54 54 0 24.981 16.964 45.996 40 52.164z" fill="#fff"/><path d="m146.001 116.164h220v43.838h-220z" fill="#e8eaf0"/><g><path d="m306.001 356.959h-100v40c32.242 8.639 68.037 8.565 100 0 0-13.333 0-26.666 0-40z" fill="#e8eaf0"/><g fill="#fff"><path d="m166.001 502.002v-97.521l-40 7.521c-32.431 6.099-60 27-60 60v30z"/><path d="m166.001 404.481v97.521h279.999v-30c0-32.999-27.569-53.902-60-60l-79.999-15.043c-31.963 8.565-67.758 8.639-100 0z"/></g></g></g><g><path d="m226.003 190.002c0-5.522-4.477-10-10-10h-.007c-5.523 0-9.997 4.478-9.997 10s4.481 10 10.004 10 10-4.478 10-10z"/><path d="m296.006 200.002c5.523 0 10-4.478 10-10s-4.477-10-10-10h-.007c-5.523 0-9.997 4.478-9.997 10s4.481 10 10.004 10z"/><path d="m256.001 268.72c12.049 0 18.589 2.87 27.641 6.843 7.802 3.424 17.513 7.686 32.434 10.529 5.423 1.031 10.662-2.525 11.696-7.951 1.034-5.425-2.526-10.661-7.951-11.695-12.7-2.421-20.55-5.865-28.142-9.197-9.994-4.386-19.434-8.528-35.678-8.528-16.245 0-25.685 4.143-35.679 8.528-7.592 3.332-15.442 6.776-28.142 9.197-5.425 1.034-8.985 6.271-7.951 11.695.914 4.793 5.106 8.13 9.812 8.13.621 0 1.251-.059 1.884-.179 14.921-2.844 24.631-7.105 32.434-10.529 9.052-3.973 15.593-6.843 27.642-6.843z"/><path d="m275.444 315.716c5.203 1.859 10.923-.852 12.782-6.052 1.858-5.201-.851-10.924-6.052-12.782-7.833-2.799-15.281-4.663-26.172-4.663-10.89 0-18.339 1.864-26.172 4.663-5.201 1.858-7.911 7.581-6.052 12.781 1.461 4.09 5.31 6.639 9.417 6.639 1.116 0 2.252-.188 3.364-.586 5.158-1.843 10.526-3.497 19.443-3.497s14.284 1.654 19.442 3.497z"/><path d="m387.848 402.175-71.847-13.511v-31.705c0-1.774-.466-3.437-1.276-4.881 18.188-5.994 32.018-15.419 41.768-28.378 15.245-20.262 18.8-46.942 19.402-73.698h5.107c19.299 0 35-15.701 35-35s-15.701-35-35-35h-5v-20-36.658c23.894-9.657 40-33.054 40-59.344 0-35.29-28.71-64-64-64-18.688 0-36.019 8.023-48 21.636-11.981-13.613-29.313-21.636-48.001-21.636s-36.02 8.023-48 21.636c-11.981-13.613-29.313-21.636-48-21.636-35.29 0-64 28.71-64 64 0 26.29 16.105 49.687 40 59.344v36.658 20h-5c-19.299 0-35 15.701-35 35s15.701 35 35 35h5.106c.602 26.757 4.158 53.436 19.402 73.698 9.749 12.959 23.579 22.384 41.767 28.378-.81 1.444-1.276 3.107-1.276 4.881v31.705l-71.847 13.511c-41.401 7.784-68.152 35.193-68.152 69.827v30c0 5.522 4.477 10 10 10h379.999c5.523 0 10-4.478 10-10v-30c0-34.634-26.751-62.043-68.152-69.827zm-171.847-13.063v-22.153h80v22.153c-26.054 5.775-53.947 5.777-80 0zm-60-219.11h200v59.819c-34.145-1.246-48.521-8.878-61.32-15.684-10.8-5.743-21.001-11.167-38.68-11.167-17.68 0-27.88 5.424-38.681 11.167-12.799 6.805-27.175 14.438-61.32 15.684v-59.819zm225 30c8.271 0 15 6.729 15 15s-6.729 15-15 15h-5v-30zm-265-136.002c0-24.262 19.738-44 44-44 16.53 0 31.518 9.133 39.116 23.834 1.717 3.321 5.144 5.408 8.884 5.408s7.167-2.087 8.884-5.408c7.598-14.701 22.586-23.834 39.116-23.834 16.529 0 31.518 9.133 39.116 23.834 1.717 3.321 5.144 5.408 8.884 5.408 3.739 0 7.167-2.087 8.884-5.408 7.598-14.701 22.586-23.834 39.116-23.834 24.262 0 44 19.738 44 44 0 19.48-12.859 36.641-31.416 42.164h-63.587c-5.523 0-10 4.478-10 10s4.477 10 10 10h55.003v23.838h-200v-23.838h54.997c5.523 0 10-4.478 10-10s-4.477-10-10-10h-63.581c-18.557-5.523-31.416-22.684-31.416-42.164zm0 151.002c0-8.271 6.729-15 15-15h5v30h-5c-8.271 0-15-6.729-15-15zm40.093 34.824c39.219-1.351 56.519-10.534 70.616-18.03 9.636-5.124 16.598-8.826 29.291-8.826 12.692 0 19.654 3.702 29.29 8.826 14.097 7.495 31.398 16.678 70.617 18.03-1.066 51.767-12.704 90.175-99.907 90.175s-98.841-38.407-99.907-90.175zm-80.092 222.176c0-29.804 26.783-45.459 51.848-50.171l28.151-5.294v75.465h-79.999zm359.998 20h-259.999v-79.226l29.703-5.586c16.27 4.146 33.276 6.243 50.296 6.243 17.017 0 34.03-2.098 50.297-6.243l77.855 14.641c25.065 4.712 51.848 20.367 51.848 50.171z"/><path d="m206.01 421.854h-.007c-5.523 0-9.997 4.478-9.997 10s4.481 10 10.004 10 10-4.478 10-10-4.477-10-10-10z"/><path d="m206.01 461.856h-.007c-5.523 0-9.997 4.478-9.997 10s4.481 10 10.004 10 10-4.478 10-10-4.477-10-10-10z"/><path d="m256.001 126.164c5.523 0 10-4.478 10-10s-4.477-10-10-10h-.008c-5.523 0-9.996 4.478-9.996 10s4.481 10 10.004 10z"/></g></g></svg>